<?xml version="1.0" encoding="UTF-8"?>
<svg xmlns="http://www.w3.org/2000/svg" version="1.1" viewBox="0 0 444 46">
  <defs>
    <style>
      .cls-1 {
        fill: #161817;
      }

      .cls-2 {
        fill: #30b043;
      }
    </style>
  </defs>
  <!-- Generator: Adobe Illustrator 28.7.1, SVG Export Plug-In . SVG Version: 1.2.0 Build 142)  -->
  <g>
    <g id="_图层_1" data-name="图层_1">
      <path class="cls-2" d="M111.4,37.3L95.8.2h-7.1l19.1,45.5h7.1L134,.2h-1.2c-1.7,0-3.4.6-4.8,1.6-1.4.9-2.6,2.3-3.3,3.8l-13.3,31.8h0Z"/>
      <path class="cls-2" d="M139.7,34.8l11-26.3,15.6,37.1h7L154.2.2h-7.1l-19,45.5h7.1l2.1-5.1h22.3s-.6-5.8-6.2-5.8h-13.7Z"/>
      <path class="cls-2" d="M206,39h-.6l-14.7-34.2c-.6-1.3-1.6-2.5-2.9-3.3-1.2-.8-2.7-1.3-4.2-1.4h-5v45.5h6.2V8.4h.8l15.9,37.1v.2h10.6V.2h-6.2v38.9s0,0,0,0Z"/>
      <path class="cls-2" d="M269.5,22.3V6h17.2c1.5,0,3-.6,4.1-1.7,1.1-1.1,1.7-2.6,1.7-4.1h-28.8v45.5h30.4l-2.3-5.9h-22.2v-11.7h18.3v-5.8h-18.3Z"/>
      <path class="cls-2" d="M255.1.2h-19.7c-3.9,0-7.6,1.5-10.3,4.3-2.7,2.7-4.3,6.4-4.3,10.3v16.3c0,3.9,1.5,7.6,4.3,10.3,2.7,2.7,6.5,4.3,10.3,4.3h19.7v-5.9h-19.5c-2.3,0-4.6-1-6.2-2.7-1.7-1.7-2.6-3.9-2.7-6.2v-15.9c0-2.3,1-4.6,2.7-6.2,1.7-1.7,3.9-2.6,6.2-2.7h13.6c.8,0,1.5-.1,2.2-.4.7-.3,1.4-.7,1.9-1.3.5-.5,1-1.2,1.3-1.9.3-.7.4-1.5.4-2.2"/>
      <path class="cls-1" d="M355.3.2h-19.7c-3.9,0-7.6,1.5-10.3,4.3-2.7,2.7-4.3,6.4-4.3,10.3v16.3c0,3.9,1.5,7.6,4.3,10.3,2.7,2.7,6.5,4.3,10.3,4.3h19.7v-5.9h-19.5c-2.3,0-4.6-1-6.2-2.7-1.7-1.7-2.6-3.9-2.7-6.2v-15.9c0-2.3,1-4.6,2.7-6.2,1.7-1.7,3.9-2.6,6.2-2.7h13.6c.8,0,1.5-.1,2.2-.4.7-.3,1.4-.7,1.9-1.3.5-.5,1-1.2,1.3-1.9.3-.7.4-1.5.4-2.2"/>
      <path class="cls-2" d="M19.1.2h7l19.1,45.5h-7L22.6,8.5,7,45.7H0L19.1.2Z"/>
      <path class="cls-2" d="M21.8,35.5l-4.3,10.1h10.1l-4.3-10.1h-1.6Z"/>
      <path class="cls-2" d="M71.1,45.7h-20.8V11.4h5.8v28.4h14.8c2.3,0,4.6-1,6.2-2.7,1.7-1.7,2.6-3.9,2.7-6.2v-15.9c0-2.4-1-4.6-2.7-6.2-1.7-1.7-3.9-2.6-6.3-2.7h-14.8c-1.5,0-3-.6-4.1-1.7-1.1-1.1-1.7-2.6-1.7-4.1h20.8c1.9,0,3.8.4,5.6,1.1,1.8.7,3.4,1.8,4.7,3.2,1.4,1.4,2.4,3,3.2,4.7.7,1.8,1.1,3.7,1.1,5.6v16.3c0,3.9-1.5,7.6-4.3,10.3-2.7,2.7-6.5,4.3-10.3,4.3h0Z"/>
      <path class="cls-1" d="M428.8,30.7h-14.9v15h-5.8V11.4h5.8v13.4h14.8c2.3,0,4.6-1,6.2-2.7,1.7-1.7,2.6-3.9,2.7-6.2v-.9c0-2.4-1-4.6-2.7-6.2-1.7-1.7-3.9-2.6-6.3-2.7h-14.8c-1.5,0-3-.6-4.1-1.7-1.1-1.1-1.7-2.6-1.7-4.1h20.8c1.9,0,3.8.4,5.6,1.1,1.8.7,3.4,1.8,4.7,3.2,1.4,1.4,2.4,3,3.2,4.7.7,1.8,1.1,3.7,1.1,5.6v1.3c0,3.9-1.5,7.6-4.3,10.3-2.7,2.7-6.5,4.3-10.3,4.3h0Z"/>
      <path class="cls-2" d="M307,45.8l-4.3-10.2h10.2l-4.3,10.2h-1.6,0Z"/>
      <path class="cls-1" d="M397.5,26.2c-1.1-1.8-2.8-3.1-4.9-4.1,2-1,3.5-2.3,4.5-3.9,1-1.6,1.5-3.5,1.5-5.7,0-3.9-1.4-7-4.2-9.2-2.8-2.2-6.6-3.3-11.4-3.3h-19.1v.3c0,3.2,2.7,5.8,6,5.8h13.5c2.8.1,4.9.7,6.4,1.8,1.4,1.1,2.1,2.7,2.1,4.7s-.7,3.9-2,5.2c-1.3,1.3-3.4,1.9-6.3,1.9h-13.7v-9.3h-6v35.4h19.3c4.8,0,8.7-1.1,11.6-3.4,2.9-2.3,4.3-5.5,4.3-9.8s-.6-4.6-1.7-6.4h0ZM390.3,37.9c-1.5,1.3-3.7,1.9-6.5,1.9h-13.7s0-15,0-15l13.2.2c3.3,0,5.7.6,7.1,1.8,1.5,1.2,2.2,3.3,2.2,5.5s-.8,4.2-2.3,5.5h0Z"/>
    </g>
  </g>
</svg>