<?xml version="1.0" encoding="UTF-8"?>
<svg id="_图层_2" data-name="图层 2" xmlns="http://www.w3.org/2000/svg" xmlns:xlink="http://www.w3.org/1999/xlink" viewBox="0 0 319.75 115.07">
  <defs>
    <style>
      .cls-1 {
        fill: #00e444;
      }

      .cls-2 {
        fill: #161817;
      }

      .cls-3 {
        clip-path: url(#clippath-1);
      }

      .cls-4 {
        fill: #0677ff;
      }

      .cls-5 {
        fill: #00adc0;
      }

      .cls-6 {
        fill: #0cd9ef;
      }

      .cls-7 {
        clip-path: url(#clippath);
      }
    </style>
    <clipPath id="clippath">
      <path class="cls-5" d="M5.35,86.23c-2.4-2.4-3.86-4.38-4.64-6.75l21.9-21.9,9.57-9.57c-.18.64-.26,1.34-.26,2.19v14.76c0,2.37.62,3.62,2.39,5.39l5.22,5.22,5.22,5.22c1.18,1.18,2.12,1.84,3.33,2.16l9.47,9.47,21.93,21.93c-1.54.5-3.24.72-5.34.72h-33.19c-5.33,0-8.15-1.39-12.12-5.37l-11.74-11.74-11.74-11.74Z"/>
    </clipPath>
    <clipPath id="clippath-1">
      <path class="cls-5" d="M5.35,86.23c-2.4-2.4-3.86-4.38-4.64-6.75l21.9-21.9,9.57-9.57c-.18.64-.26,1.34-.26,2.19v14.76c0,2.37.62,3.62,2.39,5.39l5.22,5.22,5.22,5.22c1.18,1.18,2.12,1.84,3.33,2.16l9.47,9.47,21.93,21.93c-1.54.5-3.24.72-5.34.72h-33.19c-5.33,0-8.15-1.39-12.12-5.37l-11.74-11.74-11.74-11.74Z"/>
    </clipPath>
  </defs>
  <g id="_图层_1-2" data-name="图层 1">
    <g>
      <path class="cls-2" d="M285.82,63.19c-1.84-2.88-4.39-5.3-7.61-7.05,3-1.74,5.36-3.98,7.02-6.67,1.96-3.17,2.95-6.85,2.95-10.93,0-7.49-2.71-13.44-8.07-17.68-5.3-4.19-12.55-6.32-21.57-6.32h-42.89v1.44c0,6.44,5.42,11.68,12.08,11.68l31.6.2c4.94,0,8.69.96,11.14,2.85,2.4,1.86,3.57,4.42,3.57,7.83,0,3.58-1.24,6.8-3.4,8.83-2.28,2.12-5.96,3.2-10.94,3.2l-31.01-.23v-14.99h-13.04v65.21h43.37c9.1,0,16.48-2.16,21.92-6.43,5.51-4.32,8.31-10.62,8.31-18.73,0-4.46-1.18-8.67-3.44-12.2ZM228.69,62.24l30.16.34c5.81,0,10.03,1.07,12.54,3.18,2.33,1.95,3.72,5.47,3.72,9.43s-1.31,7.11-3.62,9.18l-.27.23c-2.63,2.19-6.47,3.3-11.4,3.3l-31.13.07v-25.71Z"/>
      <path class="cls-2" d="M306.23,14.53h-.96v72.38c0,7.52,6.06,13.64,13.51,13.64h.96V28.17c0-7.52-6.06-13.64-13.51-13.64Z"/>
      <path class="cls-2" d="M146.44,32.07c2.89-2.9,6.74-4.57,10.83-4.71h31.86c1.55,0,3.06-.3,4.48-.88,1.42-.58,2.7-1.43,3.81-2.53,1.09-1.08,1.94-2.36,2.54-3.8.53-1.28.81-2.63.87-4.01,0-.04.02-.07.02-.11v-1.33h-43.96c-7.44,0-14.44,2.89-19.7,8.15-5.26,5.26-8.16,12.25-8.16,19.68v30.03c0,7.43,2.9,14.42,8.16,19.68,5.26,5.25,12.26,8.15,19.7,8.15h43.96v-12.71h-43.61c-3.94-.14-7.67-1.73-10.52-4.46-.52-.58-1.08-1.2-1.7-1.92-1.99-2.62-3.14-5.78-3.25-9.11v-29.31c.12-4.05,1.78-7.9,4.67-10.8Z"/>
      <g>
        <g>
          <path class="cls-5" d="M5.35,86.23c-2.4-2.4-3.86-4.38-4.64-6.75l21.9-21.9,9.57-9.57c-.18.64-.26,1.34-.26,2.19v14.76c0,2.37.62,3.62,2.39,5.39l5.22,5.22,5.22,5.22c1.18,1.18,2.12,1.84,3.33,2.16l9.47,9.47,21.93,21.93c-1.54.5-3.24.72-5.34.72h-33.19c-5.33,0-8.15-1.39-12.12-5.37l-11.74-11.74-11.74-11.74Z"/>
          <g class="cls-7">
            <g>
              <path class="cls-5" d="M5.35,86.23c-2.4-2.4-3.86-4.38-4.64-6.75l21.9-21.9,9.57-9.57c-.18.64-.26,1.34-.26,2.19v14.76c0,2.37.62,3.62,2.39,5.39l5.22,5.22,5.22,5.22c1.18,1.18,2.12,1.84,3.33,2.16l9.47,9.47,21.93,21.93c-1.54.5-3.24.72-5.34.72h-33.19c-5.33,0-8.15-1.39-12.12-5.37l-11.74-11.74-11.74-11.74Z"/>
              <g class="cls-3">
                <g>
                  <path class="cls-5" d="M5.35,86.23c-2.4-2.4-3.86-4.38-4.64-6.75l21.9-21.9,9.57-9.57c-.18.64-.26,1.34-.26,2.19v14.76c0,2.37.62,3.62,2.39,5.39l5.22,5.22,5.22,5.22c1.18,1.18,2.12,1.84,3.33,2.16l9.47,9.47,21.93,21.93c-1.54.5-3.24.72-5.34.72h-33.19c-5.33,0-8.15-1.39-12.12-5.37l-11.74-11.74-11.74-11.74Z"/>
                  <path class="cls-5" d="M-4.18,73.37c-2.4-2.4-3.86-4.38-4.64-6.75l21.9-21.9,9.57-9.57c-.18.64-.26,1.34-.26,2.19v14.76c0,2.37.62,3.62,2.39,5.39l5.22,5.22,5.22,5.22c1.18,1.18,2.12,1.84,3.33,2.16l9.47,9.47,21.93,21.93c-1.54.5-3.24.72-5.34.72H31.41c-5.33,0-8.15-1.39-12.12-5.37l-11.74-11.74-11.74-11.74Z"/>
                  <path class="cls-5" d="M.59,79.8c-2.4-2.4-3.86-4.38-4.64-6.75l21.9-21.9,9.57-9.57c-.18.64-.26,1.34-.26,2.19v14.76c0,2.37.62,3.62,2.39,5.39l5.22,5.22,5.22,5.22c1.18,1.18,2.12,1.84,3.33,2.16l9.47,9.47,21.93,21.93c-1.54.5-3.24.72-5.34.72h-33.19c-5.33,0-8.15-1.39-12.12-5.37l-11.74-11.74L.59,79.8Z"/>
                </g>
              </g>
            </g>
          </g>
        </g>
        <path class="cls-4" d="M35.62.72c1.54-.5,3.24-.72,5.33-.72h33.19c5.33,0,8.15,1.39,12.12,5.37l11.74,11.74,11.74,11.74c3.97,3.97,5.37,6.79,5.37,12.12v4.92s-33.35,0-33.35,0c-.28-.35-.61-.71-.99-1.09l-5.22-5.22-5.22-5.22c-1.16-1.16-2.1-1.82-3.27-2.14l-9.52-9.53L35.62.72Z"/>
        <path class="cls-6" d="M.72,79.49c-.5-1.54-.72-3.24-.72-5.34v-33.19c0-5.33,1.39-8.15,5.37-12.12l11.74-11.74,11.74-11.74c2.41-2.41,4.4-3.88,6.79-4.65l21.91,21.95,9.52,9.53c-.62-.17-1.3-.24-2.12-.24h-14.76c-2.37,0-3.62.62-5.39,2.39l-5.22,5.22-5.22,5.22c-1.13,1.13-1.8,2.06-2.13,3.2l-9.57,9.57L.72,79.49Z"/>
        <path class="cls-1" d="M57.58,92.39l-9.5-9.43c.6.16,1.3.2,2.1.2h14.76c.82,0,1.5-.07,2.12-.24,1.18-.32,2.11-.99,3.27-2.14l5.22-5.22,5.22-5.22c.38-.38.71-.74.99-1.09h33.35v4.92c0,5.33-1.39,8.15-5.37,12.12l-11.74,11.74-11.74,11.74c-2.41,2.41-4.42,3.84-6.8,4.61l-21.9-21.96Z"/>
      </g>
    </g>
  </g>
</svg>