<svg width="1635" height="700" viewBox="0 0 1635 700" fill="none" xmlns="http://www.w3.org/2000/svg">
<path d="M352.586 174.93V265.38H352.428C305.821 265.38 267.986 303.119 267.784 349.749C268.08 349.696 352.586 349.591 352.586 349.591V349.829C352.559 384.914 342.27 417.568 324.521 444.959C293.388 493.026 239.375 524.86 177.929 524.966V434.516C224.51 434.357 267.734 396.511 267.782 349.828H177.453C177.612 253.218 255.881 174.93 352.428 174.93H352.586Z" fill="#00E444"/>
<path d="M352.746 349.855C449.292 349.855 527.561 428.117 527.719 524.754H527.217V525.07H436.886C436.886 478.246 399.008 440.305 352.243 440.305C342.535 440.305 333.224 441.97 324.522 444.984C342.271 417.593 352.586 384.94 352.586 349.855H352.746ZM527.748 174.93C527.589 271.54 449.293 349.828 352.773 349.828H352.614C352.614 349.636 352.561 265.47 352.614 265.38C399.247 265.38 437.258 221.596 437.417 174.93H527.748Z" fill="#0677FF"/>
<path d="M1129.39 308.384C1140.73 305.542 1151.69 314.299 1151.69 325.976V328.404C1151.69 337.626 1144.74 345.531 1135.54 346.384C1110.28 348.683 1101.6 363.123 1101.6 392.547V425.354C1101.6 436.771 1092.35 446.02 1080.93 446.021H1080.52C1069.1 446.02 1059.85 436.771 1059.85 425.354V326.337C1059.85 316.34 1067.94 308.254 1077.93 308.254H1095.35C1098.81 308.254 1101.6 311.07 1101.6 314.506C1101.6 319.207 1100.02 323.909 1097.96 328.068C1095.89 332.227 1094.31 336.929 1098.21 337.729C1100.56 338.246 1101.86 335.895 1102.66 334.087H1102.63C1108.47 320.886 1114.18 312.181 1129.39 308.384ZM664.381 253.979C696.491 253.979 716.564 266.198 727.129 283.196C735.628 296.836 725.915 314.506 709.847 314.506C702.175 314.506 695.019 310.268 691.687 303.371C687.915 295.621 679.467 289.447 663.865 289.447C641.158 289.447 634.39 299.367 634.39 307.194C634.39 314.247 637.774 322.074 665.957 325.2C713.179 330.418 743.197 344.239 743.197 385.984V386.01C743.197 418.352 717.106 446.019 663.891 446.02C624.548 446.02 600.549 428.738 590.345 405.488C584.455 392.107 594.556 377.124 609.177 377.124H610.934C619.639 377.124 627.183 382.704 630.231 390.867C634.287 401.768 644.181 410.525 663.916 410.525C690.266 410.525 699.411 398.797 699.411 388.619C699.41 377.666 691.325 371.131 663.916 367.488C607.265 360.178 590.81 341.113 590.81 308.771C590.81 276.428 616.643 253.98 664.381 253.979ZM783.545 253.979C794.963 253.979 804.211 263.228 804.211 274.646V335.12C804.211 345.039 801.603 349.715 797.676 354.158C795.868 356.251 794.292 359.118 796.901 360.952C799.226 362.76 801.319 361.211 803.153 359.118L843.968 314.893C847.895 310.656 853.397 308.254 859.158 308.254C874.347 308.254 881.942 326.595 871.247 337.342L849.134 359.558C845.518 363.2 845.156 368.961 848.282 373.042L880.263 414.633C890.131 427.472 880.986 446.02 864.815 446.02C858.228 446.019 852.028 442.868 848.127 437.521L822.759 402.724C819.039 397.635 811.652 397.067 807.208 401.51C805.297 403.447 804.211 406.056 804.211 408.769V425.327C804.211 436.745 794.963 445.994 783.545 445.994H783.132C771.714 445.994 762.466 436.745 762.466 425.327V274.646C762.466 263.228 771.714 253.979 783.132 253.979H783.545ZM966.519 299.91C1011.91 299.91 1039.57 332.795 1039.57 372.965C1039.57 413.135 1011.91 446.02 966.519 446.02C921.131 446.02 893.464 413.135 893.464 372.965C893.464 332.795 921.131 299.91 966.519 299.91ZM1189.07 254.212C1189.92 254.212 1190.72 254.263 1191.52 254.341C1194.11 254.625 1196.66 255.323 1199.04 256.46C1201.34 257.545 1203.46 259.043 1205.29 260.825C1207.12 262.608 1208.65 264.7 1209.79 266.974C1210.38 268.214 1210.87 269.505 1211.26 270.822C1212.16 273.987 1212.24 277.27 1212.24 280.533V313.73C1212.24 324.683 1209.11 329.385 1205.19 333.828C1203.61 335.662 1203.1 337.988 1205.19 339.563C1207.28 341.139 1209.35 340.364 1210.92 338.53L1272.3 264.416C1276.23 259.818 1281.96 257.157 1288.01 257.157C1304.1 257.157 1315.83 275.705 1301.88 290.739L1265.53 336.257C1259.57 342.896 1259.15 352.841 1264.52 359.971L1306.32 412.954L1306.37 412.979C1316.63 426.567 1306.92 446.019 1289.89 446.02H1288.55C1281.94 446.019 1275.71 442.842 1271.84 437.495L1226.63 375.058L1212.27 390.971V425.38C1212.27 436.772 1203.02 446.019 1191.63 446.02C1178.79 446.02 1168.43 435.661 1168.43 422.874V279.916C1168.4 274.155 1168.58 268.342 1171.94 263.356C1175.74 257.673 1182.25 254.212 1189.07 254.212ZM1436.98 304.069C1448.35 304.069 1457.55 313.317 1457.55 324.735V425.327C1457.55 436.745 1448.32 445.994 1436.98 445.994H1426.81C1421.07 445.994 1416.42 441.344 1416.42 435.583V415.305C1416.42 411.559 1417.33 410.293 1415.67 413.651C1409.01 427.214 1394.1 445.994 1370.7 445.994L1370.67 446.02H1370.59C1341.33 446.02 1321.77 426.697 1321.77 387.586V324.761C1321.77 313.343 1330.94 304.095 1342.33 304.095C1353.72 304.095 1362.92 313.369 1362.92 324.761V370.872C1362.92 401.897 1369.87 410.5 1384.52 410.5C1401.23 410.5 1416.39 388.852 1416.39 357.026V324.735C1416.39 313.291 1425.62 304.069 1436.98 304.069ZM966.519 335.404C945.905 335.404 935.209 352.635 935.209 372.965C935.209 393.295 945.905 410.525 966.519 410.525C987.133 410.525 997.829 393.295 997.829 372.965C997.828 352.609 987.133 335.404 966.519 335.404Z" fill="#757E84"/>
</svg>
