<svg width="745" height="348" viewBox="0 0 745 348" fill="none" xmlns="http://www.w3.org/2000/svg">
<path d="M96.8895 212.59C92.6195 214.8 87.5195 211.7 87.5195 206.89V133.27C87.5195 130.96 88.7695 128.82 90.7795 127.68L131.39 104.75V194.7L96.8895 212.58V212.59Z" fill="#133052"/>
<path d="M238.54 133.22C238.54 130.91 237.3 128.79 235.3 127.65L173.44 92.2199C169.16 89.7799 164.24 92.6999 164.24 97.6199V136.42L233.72 177.58C235.86 178.83 238.54 177.29 238.54 174.81V133.22Z" fill="#0677FF"/>
<path d="M87.5195 133.43C87.5195 131.12 88.7595 129 90.7595 127.85L160.08 88.3799C162.04 87.2599 164.44 87.26 166.41 88.37L208.43 112.26L87.5195 178.12V133.43Z" fill="#133052"/>
<path d="M164.04 217.22C164.04 214.96 162.85 212.86 160.9 211.71L87.5195 168.05L87.5395 214.08C87.5395 216.37 88.7695 218.49 90.7495 219.64L159.24 259.1C161.38 260.33 164.05 258.79 164.05 256.32L164.03 217.22H164.04Z" fill="#0677FF"/>
<path d="M634.299 259.08C622.319 259.08 615.809 251.58 615.809 239.2V217.39C615.809 215.62 617.249 214.18 619.019 214.18H619.369C621.139 214.18 622.579 215.62 622.579 217.39V238.87C622.579 247.43 626.979 252.97 635.449 252.97C643.189 252.97 648.979 247.02 648.979 238.55V217.4C648.979 215.63 650.419 214.19 652.189 214.19H652.459C654.229 214.19 655.669 215.63 655.669 217.4V254.98C655.669 256.75 654.229 258.19 652.459 258.19H652.359C650.589 258.19 649.149 256.75 649.149 254.98V250.94C646.219 255.83 640.999 259.09 634.319 259.09L634.299 259.08Z" fill="#133052"/>
<path d="M580.88 259.08C570.37 259.08 565.24 253.21 565.24 246.13C565.24 237.09 572.9 231.87 585.2 231.87H599.13V230.16C599.13 223.48 594.81 219 586.26 219C580.95 219 577.07 220.79 574.18 223.91C572.99 225.2 571.05 225.66 569.56 224.72L569.43 224.64C567.83 223.63 567.44 221.45 568.78 220.12C573.01 215.93 578.71 213.31 586.34 213.31C598.89 213.31 605.65 220.24 605.65 230.18V255C605.65 256.77 604.21 258.21 602.44 258.21H602.34C600.57 258.21 599.13 256.77 599.13 255V250.47C595.22 255.85 588.46 259.11 580.88 259.11V259.08ZM582.1 253.22C588.7 253.22 595.62 249.8 599.13 243.28V237.25H585.52C576.39 237.25 572.08 240.18 572.08 245.64C572.08 249.96 575.18 253.22 582.1 253.22Z" fill="#133052"/>
<path d="M535.56 259.08C521.46 259.08 512.34 249.22 512.34 236.35C512.34 223.48 522.12 213.29 535.32 213.29C548.52 213.29 557.73 222.66 557.73 235.7C557.73 237.36 556.38 238.71 554.71 238.71H518.86C519.84 247.1 526.27 253.05 535.56 253.05C541.29 253.05 545.49 250.98 548.48 247.29C549.61 245.89 551.58 245.33 553.12 246.23C554.69 247.15 555.2 249.21 554.06 250.63C549.73 255.99 543.86 259.08 535.55 259.08H535.56ZM535.31 219.24C526.92 219.24 520.48 225.03 519.02 232.85H550.88C549.82 224.54 543.87 219.24 535.32 219.24H535.31Z" fill="#133052"/>
<path d="M486.858 258.19C485.088 258.19 483.648 256.75 483.648 254.98V217.4C483.648 215.63 485.098 214.19 486.868 214.19C488.638 214.19 490.088 215.63 490.088 217.4V222.5C491.958 216.63 496.358 213.54 502.638 213.54C504.398 213.54 506.028 213.74 507.408 214.11C508.948 214.53 509.488 216.25 508.858 217.72L508.728 218.01C507.928 219.84 505.588 220.53 503.618 220.26C503.058 220.18 502.468 220.14 501.828 220.14C494.498 220.14 490.258 224.38 490.258 234.07V254.98C490.258 256.75 488.818 258.19 487.048 258.19H486.868H486.858Z" fill="#133052"/>
<path d="M450.51 259.08C438.53 259.08 432.02 251.58 432.02 239.2V217.39C432.02 215.62 433.46 214.18 435.23 214.18H435.58C437.35 214.18 438.79 215.62 438.79 217.39V238.87C438.79 247.43 443.19 252.97 451.66 252.97C459.4 252.97 465.19 247.02 465.19 238.55V217.4C465.19 215.63 466.63 214.19 468.4 214.19H468.67C470.44 214.19 471.88 215.63 471.88 217.4V254.98C471.88 256.75 470.44 258.19 468.67 258.19H468.57C466.8 258.19 465.36 256.75 465.36 254.98V250.94C462.43 255.83 457.21 259.09 450.53 259.09L450.51 259.08Z" fill="#133052"/>
<path d="M380.669 258.19C378.899 258.19 377.459 256.75 377.459 254.98V201.92C377.459 200.15 378.899 198.71 380.669 198.71H402.879C413.959 198.71 421.289 204.9 421.289 214.52C421.289 218.99 419.589 222.81 416.379 225.47C415.309 226.35 415.379 228.3 416.519 229.09C420.359 231.79 422.509 236.05 422.509 241.41C422.509 251.84 414.929 258.19 403.689 258.19H380.659H380.669ZM403.289 230.73H384.229V251.91H403.619C410.949 251.91 415.679 247.51 415.679 241.32C415.679 235.13 411.439 230.73 403.299 230.73H403.289ZM402.799 204.9H384.219V224.45H403.369C410.619 224.45 414.529 220.21 414.529 214.51C414.529 208.81 410.049 204.9 402.799 204.9Z" fill="#133052"/>
<path d="M310.13 258.19C308.36 258.19 306.92 256.75 306.92 254.98V201.92C306.92 200.15 308.36 198.71 310.13 198.71H343.72C345.49 198.71 346.93 200.15 346.93 201.92V206.34C346.93 208.11 345.49 209.55 343.72 209.55H318.41V222.91H343.72C345.49 222.91 346.93 224.35 346.93 226.12V230.54C346.93 232.31 345.49 233.75 343.72 233.75H318.41V247.27H343.72C345.49 247.27 346.93 248.71 346.93 250.48V254.98C346.93 256.75 345.49 258.19 343.72 258.19H310.13Z" fill="#133052"/>
<path d="M241.63 258.19C239.86 258.19 238.42 256.75 238.42 254.98V201.92C238.42 200.15 239.86 198.71 241.63 198.71H247.94C248.97 198.71 249.94 199.21 250.54 200.04L264.7 219.69C265.97 221.45 268.58 221.47 269.87 219.74L284.62 200C285.23 199.19 286.18 198.71 287.19 198.71H293.05C294.82 198.71 296.26 200.15 296.26 201.92V254.98C296.26 256.75 294.82 258.19 293.05 258.19H288.22C286.45 258.19 285.01 256.75 285.01 254.98V216.47L269.75 236.95C268.46 238.68 265.87 238.67 264.6 236.94L249.81 216.88V254.98C249.81 256.75 248.37 258.19 246.6 258.19H241.61H241.63Z" fill="#133052"/>
<path d="M208.219 259C196.919 259 189.499 255.06 184.049 249.2C182.849 247.91 183.099 245.89 184.469 244.8L189.199 241.03C190.689 239.84 192.869 240.23 194.109 241.69C197.759 245.98 202.409 248.17 208.289 248.17C214.729 248.17 218.069 245.07 218.069 240.76C218.069 235.22 212.369 234.08 204.139 232.2C195.259 230.33 185.319 227.48 185.319 215.42C185.319 205.64 194.039 197.82 206.419 197.82C215.559 197.82 221.739 200.59 227.159 205.7C228.509 206.98 228.319 209.14 226.849 210.29L222.889 213.39C221.429 214.54 219.329 214.17 218.049 212.82C215.239 209.85 211.629 208.09 206.249 208.09C199.809 208.09 197.039 211.27 197.039 215.18C197.039 219.99 202.989 220.88 210.399 222.59C219.519 224.55 230.029 227.48 230.029 240.35C230.029 250.53 221.469 259.01 208.189 259.01L208.219 259Z" fill="#133052"/>
</svg>
